<mxfile host="app.diagrams.net" agent="Mozilla/5.0 (Windows NT 10.0; Win64; x64) AppleWebKit/537.36 (KHTML, like Gecko) Chrome/134.0.0.0 Safari/537.36" version="26.2.13">
  <diagram name="Trang-1" id="tJI5XgR4e6o2uFU5nmzc">
    <mxGraphModel dx="1658" dy="934" grid="1" gridSize="10" guides="1" tooltips="1" connect="1" arrows="1" fold="1" page="1" pageScale="1" pageWidth="1654" pageHeight="2336" math="0" shadow="0">
      <root>
        <mxCell id="0" />
        <mxCell id="1" parent="0" />
        <mxCell id="uDL485vtP0wA4bZhaZyx-5" style="edgeStyle=orthogonalEdgeStyle;rounded=0;orthogonalLoop=1;jettySize=auto;html=1;exitX=0.5;exitY=1;exitDx=0;exitDy=0;" edge="1" parent="1" source="uDL485vtP0wA4bZhaZyx-1">
          <mxGeometry relative="1" as="geometry">
            <mxPoint x="400" y="250" as="targetPoint" />
          </mxGeometry>
        </mxCell>
        <mxCell id="uDL485vtP0wA4bZhaZyx-1" value="Start" style="ellipse;whiteSpace=wrap;html=1;" vertex="1" parent="1">
          <mxGeometry x="320" y="80" width="160" height="80" as="geometry" />
        </mxCell>
        <mxCell id="uDL485vtP0wA4bZhaZyx-7" style="edgeStyle=orthogonalEdgeStyle;rounded=0;orthogonalLoop=1;jettySize=auto;html=1;exitX=1;exitY=0.5;exitDx=0;exitDy=0;" edge="1" parent="1" source="uDL485vtP0wA4bZhaZyx-6">
          <mxGeometry relative="1" as="geometry">
            <mxPoint x="520" y="285" as="targetPoint" />
          </mxGeometry>
        </mxCell>
        <mxCell id="uDL485vtP0wA4bZhaZyx-64" style="edgeStyle=orthogonalEdgeStyle;rounded=0;orthogonalLoop=1;jettySize=auto;html=1;exitX=0.5;exitY=1;exitDx=0;exitDy=0;" edge="1" parent="1" source="uDL485vtP0wA4bZhaZyx-6" target="uDL485vtP0wA4bZhaZyx-65">
          <mxGeometry relative="1" as="geometry">
            <mxPoint x="400" y="730" as="targetPoint" />
          </mxGeometry>
        </mxCell>
        <mxCell id="uDL485vtP0wA4bZhaZyx-6" value="Nhập điểm&amp;nbsp;" style="shape=parallelogram;perimeter=parallelogramPerimeter;whiteSpace=wrap;html=1;fixedSize=1;" vertex="1" parent="1">
          <mxGeometry x="320" y="250" width="160" height="70" as="geometry" />
        </mxCell>
        <mxCell id="uDL485vtP0wA4bZhaZyx-12" style="edgeStyle=orthogonalEdgeStyle;rounded=0;orthogonalLoop=1;jettySize=auto;html=1;exitX=1;exitY=0.5;exitDx=0;exitDy=0;" edge="1" parent="1" source="uDL485vtP0wA4bZhaZyx-10">
          <mxGeometry relative="1" as="geometry">
            <mxPoint x="670" y="285" as="targetPoint" />
          </mxGeometry>
        </mxCell>
        <mxCell id="uDL485vtP0wA4bZhaZyx-13" value="Đúng" style="edgeLabel;html=1;align=center;verticalAlign=middle;resizable=0;points=[];" vertex="1" connectable="0" parent="uDL485vtP0wA4bZhaZyx-12">
          <mxGeometry x="-0.3664" y="2" relative="1" as="geometry">
            <mxPoint as="offset" />
          </mxGeometry>
        </mxCell>
        <mxCell id="uDL485vtP0wA4bZhaZyx-15" style="rounded=0;orthogonalLoop=1;jettySize=auto;html=1;exitX=1;exitY=1;exitDx=0;exitDy=0;" edge="1" parent="1" source="uDL485vtP0wA4bZhaZyx-10">
          <mxGeometry relative="1" as="geometry">
            <mxPoint x="620" y="380" as="targetPoint" />
          </mxGeometry>
        </mxCell>
        <mxCell id="uDL485vtP0wA4bZhaZyx-16" value="Sai" style="edgeLabel;html=1;align=center;verticalAlign=middle;resizable=0;points=[];" vertex="1" connectable="0" parent="uDL485vtP0wA4bZhaZyx-15">
          <mxGeometry y="2" relative="1" as="geometry">
            <mxPoint x="-1" as="offset" />
          </mxGeometry>
        </mxCell>
        <mxCell id="uDL485vtP0wA4bZhaZyx-10" value="điểm &amp;lt; 4" style="rhombus;whiteSpace=wrap;html=1;" vertex="1" parent="1">
          <mxGeometry x="520" y="245" width="100" height="80" as="geometry" />
        </mxCell>
        <mxCell id="uDL485vtP0wA4bZhaZyx-14" value="Xếp loại không đạt" style="rounded=0;whiteSpace=wrap;html=1;" vertex="1" parent="1">
          <mxGeometry x="670" y="245" width="130" height="80" as="geometry" />
        </mxCell>
        <mxCell id="uDL485vtP0wA4bZhaZyx-18" style="edgeStyle=orthogonalEdgeStyle;rounded=0;orthogonalLoop=1;jettySize=auto;html=1;exitX=1;exitY=0.5;exitDx=0;exitDy=0;" edge="1" parent="1" source="uDL485vtP0wA4bZhaZyx-17">
          <mxGeometry relative="1" as="geometry">
            <mxPoint x="740" y="380" as="targetPoint" />
          </mxGeometry>
        </mxCell>
        <mxCell id="uDL485vtP0wA4bZhaZyx-24" style="edgeStyle=orthogonalEdgeStyle;rounded=0;orthogonalLoop=1;jettySize=auto;html=1;exitX=0;exitY=1;exitDx=0;exitDy=0;" edge="1" parent="1" source="uDL485vtP0wA4bZhaZyx-17">
          <mxGeometry relative="1" as="geometry">
            <mxPoint x="600" y="470" as="targetPoint" />
          </mxGeometry>
        </mxCell>
        <mxCell id="uDL485vtP0wA4bZhaZyx-25" value="Đúng" style="edgeLabel;html=1;align=center;verticalAlign=middle;resizable=0;points=[];" vertex="1" connectable="0" parent="uDL485vtP0wA4bZhaZyx-24">
          <mxGeometry x="0.3755" y="1" relative="1" as="geometry">
            <mxPoint as="offset" />
          </mxGeometry>
        </mxCell>
        <mxCell id="uDL485vtP0wA4bZhaZyx-27" style="edgeStyle=orthogonalEdgeStyle;rounded=0;orthogonalLoop=1;jettySize=auto;html=1;exitX=1;exitY=1;exitDx=0;exitDy=0;" edge="1" parent="1" source="uDL485vtP0wA4bZhaZyx-17">
          <mxGeometry relative="1" as="geometry">
            <mxPoint x="720" y="470" as="targetPoint" />
          </mxGeometry>
        </mxCell>
        <mxCell id="uDL485vtP0wA4bZhaZyx-29" value="Sai" style="edgeLabel;html=1;align=center;verticalAlign=middle;resizable=0;points=[];" vertex="1" connectable="0" parent="uDL485vtP0wA4bZhaZyx-27">
          <mxGeometry x="0.3846" relative="1" as="geometry">
            <mxPoint as="offset" />
          </mxGeometry>
        </mxCell>
        <mxCell id="uDL485vtP0wA4bZhaZyx-17" value="điểm &amp;lt; 6" style="rhombus;whiteSpace=wrap;html=1;" vertex="1" parent="1">
          <mxGeometry x="620" y="340" width="80" height="80" as="geometry" />
        </mxCell>
        <mxCell id="uDL485vtP0wA4bZhaZyx-21" style="edgeStyle=orthogonalEdgeStyle;rounded=0;orthogonalLoop=1;jettySize=auto;html=1;exitX=1;exitY=0.5;exitDx=0;exitDy=0;" edge="1" parent="1" source="uDL485vtP0wA4bZhaZyx-19">
          <mxGeometry relative="1" as="geometry">
            <mxPoint x="890" y="380" as="targetPoint" />
          </mxGeometry>
        </mxCell>
        <mxCell id="uDL485vtP0wA4bZhaZyx-19" value="Hiển thị xếp loại" style="shape=parallelogram;perimeter=parallelogramPerimeter;whiteSpace=wrap;html=1;fixedSize=1;" vertex="1" parent="1">
          <mxGeometry x="730" y="350" width="120" height="60" as="geometry" />
        </mxCell>
        <mxCell id="uDL485vtP0wA4bZhaZyx-23" value="End" style="ellipse;whiteSpace=wrap;html=1;" vertex="1" parent="1">
          <mxGeometry x="890" y="340" width="120" height="80" as="geometry" />
        </mxCell>
        <mxCell id="uDL485vtP0wA4bZhaZyx-28" style="edgeStyle=orthogonalEdgeStyle;rounded=0;orthogonalLoop=1;jettySize=auto;html=1;exitX=1;exitY=0.5;exitDx=0;exitDy=0;" edge="1" parent="1" source="uDL485vtP0wA4bZhaZyx-26">
          <mxGeometry relative="1" as="geometry">
            <mxPoint x="690" y="500" as="targetPoint" />
          </mxGeometry>
        </mxCell>
        <mxCell id="uDL485vtP0wA4bZhaZyx-26" value="Xếp loại trung bình" style="rounded=0;whiteSpace=wrap;html=1;" vertex="1" parent="1">
          <mxGeometry x="540" y="470" width="120" height="60" as="geometry" />
        </mxCell>
        <mxCell id="uDL485vtP0wA4bZhaZyx-31" style="edgeStyle=orthogonalEdgeStyle;rounded=0;orthogonalLoop=1;jettySize=auto;html=1;exitX=0;exitY=1;exitDx=0;exitDy=0;" edge="1" parent="1" source="uDL485vtP0wA4bZhaZyx-30">
          <mxGeometry relative="1" as="geometry">
            <mxPoint x="680" y="580" as="targetPoint" />
          </mxGeometry>
        </mxCell>
        <mxCell id="uDL485vtP0wA4bZhaZyx-32" value="Đúng" style="edgeLabel;html=1;align=center;verticalAlign=middle;resizable=0;points=[];" vertex="1" connectable="0" parent="uDL485vtP0wA4bZhaZyx-31">
          <mxGeometry x="0.104" y="3" relative="1" as="geometry">
            <mxPoint as="offset" />
          </mxGeometry>
        </mxCell>
        <mxCell id="uDL485vtP0wA4bZhaZyx-43" style="edgeStyle=orthogonalEdgeStyle;rounded=0;orthogonalLoop=1;jettySize=auto;html=1;exitX=1;exitY=1;exitDx=0;exitDy=0;entryX=0.5;entryY=0;entryDx=0;entryDy=0;" edge="1" parent="1" source="uDL485vtP0wA4bZhaZyx-30" target="uDL485vtP0wA4bZhaZyx-39">
          <mxGeometry relative="1" as="geometry" />
        </mxCell>
        <mxCell id="uDL485vtP0wA4bZhaZyx-44" value="Sai" style="edgeLabel;html=1;align=center;verticalAlign=middle;resizable=0;points=[];" vertex="1" connectable="0" parent="uDL485vtP0wA4bZhaZyx-43">
          <mxGeometry x="-0.1167" y="2" relative="1" as="geometry">
            <mxPoint as="offset" />
          </mxGeometry>
        </mxCell>
        <mxCell id="uDL485vtP0wA4bZhaZyx-30" value="Điểm &amp;lt; 8" style="rhombus;whiteSpace=wrap;html=1;" vertex="1" parent="1">
          <mxGeometry x="690" y="460" width="80" height="80" as="geometry" />
        </mxCell>
        <mxCell id="uDL485vtP0wA4bZhaZyx-36" style="edgeStyle=orthogonalEdgeStyle;rounded=0;orthogonalLoop=1;jettySize=auto;html=1;exitX=1;exitY=0.5;exitDx=0;exitDy=0;" edge="1" parent="1" source="uDL485vtP0wA4bZhaZyx-33">
          <mxGeometry relative="1" as="geometry">
            <mxPoint x="760" y="610" as="targetPoint" />
          </mxGeometry>
        </mxCell>
        <mxCell id="uDL485vtP0wA4bZhaZyx-33" value="Xếp loại khá" style="rounded=0;whiteSpace=wrap;html=1;" vertex="1" parent="1">
          <mxGeometry x="620" y="580" width="120" height="60" as="geometry" />
        </mxCell>
        <mxCell id="uDL485vtP0wA4bZhaZyx-45" style="edgeStyle=orthogonalEdgeStyle;rounded=0;orthogonalLoop=1;jettySize=auto;html=1;exitX=1;exitY=0;exitDx=0;exitDy=0;" edge="1" parent="1" source="uDL485vtP0wA4bZhaZyx-39">
          <mxGeometry relative="1" as="geometry">
            <mxPoint x="890" y="590" as="targetPoint" />
          </mxGeometry>
        </mxCell>
        <mxCell id="uDL485vtP0wA4bZhaZyx-46" value="Đúng" style="edgeLabel;html=1;align=center;verticalAlign=middle;resizable=0;points=[];" vertex="1" connectable="0" parent="uDL485vtP0wA4bZhaZyx-45">
          <mxGeometry x="-0.1774" y="-1" relative="1" as="geometry">
            <mxPoint x="6" as="offset" />
          </mxGeometry>
        </mxCell>
        <mxCell id="uDL485vtP0wA4bZhaZyx-49" style="edgeStyle=orthogonalEdgeStyle;rounded=0;orthogonalLoop=1;jettySize=auto;html=1;exitX=1;exitY=1;exitDx=0;exitDy=0;" edge="1" parent="1" source="uDL485vtP0wA4bZhaZyx-39">
          <mxGeometry relative="1" as="geometry">
            <mxPoint x="890" y="630" as="targetPoint" />
          </mxGeometry>
        </mxCell>
        <mxCell id="uDL485vtP0wA4bZhaZyx-50" value="Sai" style="edgeLabel;html=1;align=center;verticalAlign=middle;resizable=0;points=[];" vertex="1" connectable="0" parent="uDL485vtP0wA4bZhaZyx-49">
          <mxGeometry x="-0.149" relative="1" as="geometry">
            <mxPoint x="7" as="offset" />
          </mxGeometry>
        </mxCell>
        <mxCell id="uDL485vtP0wA4bZhaZyx-39" value="Điểm &amp;lt; 9" style="rhombus;whiteSpace=wrap;html=1;" vertex="1" parent="1">
          <mxGeometry x="760" y="570" width="80" height="80" as="geometry" />
        </mxCell>
        <mxCell id="uDL485vtP0wA4bZhaZyx-52" style="edgeStyle=orthogonalEdgeStyle;rounded=0;orthogonalLoop=1;jettySize=auto;html=1;exitX=1;exitY=0.5;exitDx=0;exitDy=0;" edge="1" parent="1" source="uDL485vtP0wA4bZhaZyx-48">
          <mxGeometry relative="1" as="geometry">
            <mxPoint x="1040" y="579.75" as="targetPoint" />
          </mxGeometry>
        </mxCell>
        <mxCell id="uDL485vtP0wA4bZhaZyx-48" value="Xếp loại giỏi" style="rounded=0;whiteSpace=wrap;html=1;" vertex="1" parent="1">
          <mxGeometry x="890" y="550" width="120" height="60" as="geometry" />
        </mxCell>
        <mxCell id="uDL485vtP0wA4bZhaZyx-54" style="edgeStyle=orthogonalEdgeStyle;rounded=0;orthogonalLoop=1;jettySize=auto;html=1;exitX=1;exitY=0.5;exitDx=0;exitDy=0;" edge="1" parent="1" source="uDL485vtP0wA4bZhaZyx-51">
          <mxGeometry relative="1" as="geometry">
            <mxPoint x="1040" y="649.9677419354839" as="targetPoint" />
          </mxGeometry>
        </mxCell>
        <mxCell id="uDL485vtP0wA4bZhaZyx-51" value="Xếp loại xuất sắc" style="rounded=0;whiteSpace=wrap;html=1;" vertex="1" parent="1">
          <mxGeometry x="890" y="620" width="120" height="60" as="geometry" />
        </mxCell>
        <mxCell id="uDL485vtP0wA4bZhaZyx-56" style="edgeStyle=orthogonalEdgeStyle;rounded=0;orthogonalLoop=1;jettySize=auto;html=1;exitX=1;exitY=0.5;exitDx=0;exitDy=0;" edge="1" parent="1" source="uDL485vtP0wA4bZhaZyx-53">
          <mxGeometry relative="1" as="geometry">
            <mxPoint x="1190" y="579.7777777777778" as="targetPoint" />
          </mxGeometry>
        </mxCell>
        <mxCell id="uDL485vtP0wA4bZhaZyx-53" value="Hiển thị xếp loại" style="shape=parallelogram;perimeter=parallelogramPerimeter;whiteSpace=wrap;html=1;fixedSize=1;" vertex="1" parent="1">
          <mxGeometry x="1030" y="550" width="120" height="60" as="geometry" />
        </mxCell>
        <mxCell id="uDL485vtP0wA4bZhaZyx-62" style="edgeStyle=orthogonalEdgeStyle;rounded=0;orthogonalLoop=1;jettySize=auto;html=1;exitX=1;exitY=0.75;exitDx=0;exitDy=0;" edge="1" parent="1" source="uDL485vtP0wA4bZhaZyx-55">
          <mxGeometry relative="1" as="geometry">
            <mxPoint x="1190" y="661.3636363636363" as="targetPoint" />
          </mxGeometry>
        </mxCell>
        <mxCell id="uDL485vtP0wA4bZhaZyx-55" value="Hiển thị xếp loại" style="shape=parallelogram;perimeter=parallelogramPerimeter;whiteSpace=wrap;html=1;fixedSize=1;" vertex="1" parent="1">
          <mxGeometry x="1030" y="620" width="120" height="60" as="geometry" />
        </mxCell>
        <mxCell id="uDL485vtP0wA4bZhaZyx-57" value="End" style="ellipse;whiteSpace=wrap;html=1;" vertex="1" parent="1">
          <mxGeometry x="1190" y="540" width="120" height="80" as="geometry" />
        </mxCell>
        <mxCell id="uDL485vtP0wA4bZhaZyx-63" value="End" style="ellipse;whiteSpace=wrap;html=1;" vertex="1" parent="1">
          <mxGeometry x="1190" y="630" width="120" height="80" as="geometry" />
        </mxCell>
        <mxCell id="uDL485vtP0wA4bZhaZyx-65" value="End" style="ellipse;whiteSpace=wrap;html=1;" vertex="1" parent="1">
          <mxGeometry x="340" y="720" width="120" height="80" as="geometry" />
        </mxCell>
      </root>
    </mxGraphModel>
  </diagram>
</mxfile>
